<svg xmlns="http://www.w3.org/2000/svg" height="30" width="48" viewBox="0 0 48 30" fill="#fff">
    <path
        d="M12.368,12.5c-1.093-.766-1.888-1.542-1.888-2.5H4.4c0,1.724-.795,2.5-1.775,2.5H1V30H32.578V12.5H12.368Zm-1.888,5H4.789V15h6.316v2.012Zm10.689,9.733a6.469,6.469,0,0,1-6.535-6.384,6.346,6.346,0,0,1,6.535-6.236A6.345,6.345,0,0,1,27.7,20.849,6.467,6.467,0,0,1,21.169,27.233Zm3.512-6.384a3.513,3.513,0,1,1-3.512-3.431,3.477,3.477,0,0,1,3.512,3.431ZM49,10.119,41.138,29.953,35.1,27.559v-3.38l4.19,1.7L44.827,11.92,24.1,4.077,22.176,10H18.717L22.254,0,49,10.12Z"
        transform="translate(-1 0)" />
</svg>